<mxfile host="Electron" modified="2024-02-09T12:42:36.948Z" agent="Mozilla/5.0 (Windows NT 10.0; Win64; x64) AppleWebKit/537.36 (KHTML, like Gecko) draw.io/23.0.2 Chrome/120.0.6099.109 Electron/28.1.0 Safari/537.36" etag="C_km8WaBeMdkB6B9IC0Z" version="23.0.2" type="device">
  <diagram id="C5RBs43oDa-KdzZeNtuy" name="Page-1">
    <mxGraphModel dx="2048" dy="713" grid="1" gridSize="10" guides="1" tooltips="1" connect="1" arrows="1" fold="1" page="1" pageScale="1" pageWidth="827" pageHeight="1169" math="0" shadow="0">
      <root>
        <mxCell id="WIyWlLk6GJQsqaUBKTNV-0" />
        <mxCell id="WIyWlLk6GJQsqaUBKTNV-1" parent="WIyWlLk6GJQsqaUBKTNV-0" />
        <mxCell id="WIyWlLk6GJQsqaUBKTNV-3" value="Control path (The FSM)&lt;br&gt;&lt;font color=&quot;#ff0505&quot;&gt;cp_fsm_1&lt;/font&gt;" style="rounded=1;whiteSpace=wrap;html=1;fontSize=12;glass=0;strokeWidth=1;shadow=0;verticalAlign=bottom;align=center;fontStyle=1;fillColor=#fff2cc;strokeColor=#d6b656;" parent="WIyWlLk6GJQsqaUBKTNV-1" vertex="1">
          <mxGeometry x="40" y="640" width="1030" height="110" as="geometry" />
        </mxCell>
        <mxCell id="1hs4knqwZ85UVMhzhQ41-1" value="" style="group" parent="WIyWlLk6GJQsqaUBKTNV-1" vertex="1" connectable="0">
          <mxGeometry x="60" y="304" width="100" height="170" as="geometry" />
        </mxCell>
        <mxCell id="WIyWlLk6GJQsqaUBKTNV-11" value="" style="rounded=1;whiteSpace=wrap;html=1;fontSize=12;glass=0;strokeWidth=1;shadow=0;container=1;fillColor=#f8cecc;strokeColor=#b85450;" parent="1hs4knqwZ85UVMhzhQ41-1" vertex="1">
          <mxGeometry y="40" width="100" height="130" as="geometry" />
        </mxCell>
        <mxCell id="1hs4knqwZ85UVMhzhQ41-13" value="RxD" style="text;html=1;strokeColor=none;fillColor=none;align=left;verticalAlign=middle;whiteSpace=wrap;rounded=0;fontSize=11;fontFamily=Helvetica;fontColor=default;" parent="WIyWlLk6GJQsqaUBKTNV-11" vertex="1">
          <mxGeometry y="15" width="50" height="30" as="geometry" />
        </mxCell>
        <mxCell id="1hs4knqwZ85UVMhzhQ41-0" value="UART Rx&lt;br&gt;&lt;font color=&quot;#ff0505&quot;&gt;dp_uart_rx&lt;/font&gt;" style="text;html=1;strokeColor=none;fillColor=none;align=center;verticalAlign=middle;whiteSpace=wrap;rounded=0;fontSize=11;fontFamily=Helvetica;fontColor=default;fontStyle=1" parent="1hs4knqwZ85UVMhzhQ41-1" vertex="1">
          <mxGeometry x="20" width="60" height="30" as="geometry" />
        </mxCell>
        <mxCell id="1hs4knqwZ85UVMhzhQ41-4" value="mod-m counter&lt;br&gt;&lt;span style=&quot;font-weight: normal;&quot;&gt;Baud-rate generator&lt;br&gt;&lt;/span&gt;&lt;font color=&quot;#ff0505&quot;&gt;dp_mod_m_uart&lt;/font&gt;" style="text;html=1;strokeColor=none;fillColor=none;align=center;verticalAlign=middle;whiteSpace=wrap;rounded=0;fontSize=11;fontFamily=Helvetica;fontColor=default;fontStyle=1" parent="WIyWlLk6GJQsqaUBKTNV-1" vertex="1">
          <mxGeometry x="-80" y="429" width="110" height="45" as="geometry" />
        </mxCell>
        <mxCell id="1hs4knqwZ85UVMhzhQ41-3" value="" style="rounded=1;whiteSpace=wrap;html=1;fontSize=12;glass=0;strokeWidth=1;shadow=0;container=1;fillColor=#d5e8d4;strokeColor=#82b366;" parent="WIyWlLk6GJQsqaUBKTNV-1" vertex="1">
          <mxGeometry x="-60" y="479" width="70" height="70" as="geometry">
            <mxRectangle x="-60" y="550" width="50" height="40" as="alternateBounds" />
          </mxGeometry>
        </mxCell>
        <mxCell id="1hs4knqwZ85UVMhzhQ41-5" style="edgeStyle=orthogonalEdgeStyle;rounded=1;orthogonalLoop=1;jettySize=auto;html=1;exitX=1;exitY=0.5;exitDx=0;exitDy=0;entryX=0;entryY=0.75;entryDx=0;entryDy=0;curved=0;endArrow=block;endFill=1;" parent="WIyWlLk6GJQsqaUBKTNV-1" edge="1">
          <mxGeometry relative="1" as="geometry">
            <mxPoint x="9.5" y="513.5" as="sourcePoint" />
            <mxPoint x="79.5" y="473.5" as="targetPoint" />
          </mxGeometry>
        </mxCell>
        <mxCell id="1hs4knqwZ85UVMhzhQ41-6" value="Tick pulse" style="edgeLabel;html=1;align=center;verticalAlign=middle;resizable=0;points=[];" parent="1hs4knqwZ85UVMhzhQ41-5" vertex="1" connectable="0">
          <mxGeometry x="-0.1263" y="1" relative="1" as="geometry">
            <mxPoint as="offset" />
          </mxGeometry>
        </mxCell>
        <mxCell id="1hs4knqwZ85UVMhzhQ41-7" value="" style="endArrow=classic;html=1;rounded=0;exitX=0.608;exitY=0.997;exitDx=0;exitDy=0;exitPerimeter=0;" parent="WIyWlLk6GJQsqaUBKTNV-1" source="WIyWlLk6GJQsqaUBKTNV-11" edge="1">
          <mxGeometry width="50" height="50" relative="1" as="geometry">
            <mxPoint x="120" y="550" as="sourcePoint" />
            <mxPoint x="120" y="640" as="targetPoint" />
          </mxGeometry>
        </mxCell>
        <mxCell id="1hs4knqwZ85UVMhzhQ41-9" value="1" style="edgeLabel;html=1;align=center;verticalAlign=middle;resizable=0;points=[];" parent="1hs4knqwZ85UVMhzhQ41-7" vertex="1" connectable="0">
          <mxGeometry x="-0.1772" relative="1" as="geometry">
            <mxPoint as="offset" />
          </mxGeometry>
        </mxCell>
        <mxCell id="1hs4knqwZ85UVMhzhQ41-10" value="rx_done" style="text;html=1;strokeColor=none;fillColor=none;align=left;verticalAlign=middle;whiteSpace=wrap;rounded=0;fontSize=11;fontFamily=Helvetica;fontColor=default;" parent="WIyWlLk6GJQsqaUBKTNV-1" vertex="1">
          <mxGeometry x="100" y="640" width="50" height="30" as="geometry" />
        </mxCell>
        <mxCell id="1hs4knqwZ85UVMhzhQ41-11" value="" style="endArrow=classic;html=1;rounded=0;entryX=-0.036;entryY=0.241;entryDx=0;entryDy=0;entryPerimeter=0;" parent="WIyWlLk6GJQsqaUBKTNV-1" target="WIyWlLk6GJQsqaUBKTNV-11" edge="1">
          <mxGeometry width="50" height="50" relative="1" as="geometry">
            <mxPoint x="-40" y="375" as="sourcePoint" />
            <mxPoint x="90" y="419" as="targetPoint" />
          </mxGeometry>
        </mxCell>
        <mxCell id="1hs4knqwZ85UVMhzhQ41-12" value="1" style="edgeLabel;html=1;align=center;verticalAlign=middle;resizable=0;points=[];" parent="1hs4knqwZ85UVMhzhQ41-11" vertex="1" connectable="0">
          <mxGeometry x="-0.0455" y="-2" relative="1" as="geometry">
            <mxPoint as="offset" />
          </mxGeometry>
        </mxCell>
        <mxCell id="1hs4knqwZ85UVMhzhQ41-14" value="" style="endArrow=classic;html=1;rounded=0;entryX=-0.001;entryY=0.532;entryDx=0;entryDy=0;entryPerimeter=0;" parent="WIyWlLk6GJQsqaUBKTNV-1" edge="1">
          <mxGeometry width="50" height="50" relative="1" as="geometry">
            <mxPoint x="-39.12" y="680.2" as="sourcePoint" />
            <mxPoint x="39.99999999999989" y="680" as="targetPoint" />
          </mxGeometry>
        </mxCell>
        <mxCell id="1hs4knqwZ85UVMhzhQ41-16" value="1" style="edgeLabel;html=1;align=center;verticalAlign=middle;resizable=0;points=[];" parent="1hs4knqwZ85UVMhzhQ41-14" vertex="1" connectable="0">
          <mxGeometry x="-0.1362" y="2" relative="1" as="geometry">
            <mxPoint as="offset" />
          </mxGeometry>
        </mxCell>
        <mxCell id="1hs4knqwZ85UVMhzhQ41-15" value="Play" style="text;html=1;strokeColor=none;fillColor=none;align=left;verticalAlign=middle;whiteSpace=wrap;rounded=0;fontSize=11;fontFamily=Helvetica;fontColor=default;" parent="WIyWlLk6GJQsqaUBKTNV-1" vertex="1">
          <mxGeometry x="44" y="665" width="50" height="30" as="geometry" />
        </mxCell>
        <mxCell id="1hs4knqwZ85UVMhzhQ41-17" value="" style="group" parent="WIyWlLk6GJQsqaUBKTNV-1" vertex="1" connectable="0">
          <mxGeometry x="240" y="304" width="70" height="136" as="geometry" />
        </mxCell>
        <mxCell id="1hs4knqwZ85UVMhzhQ41-18" value="" style="rounded=1;whiteSpace=wrap;html=1;fontSize=12;glass=0;strokeWidth=1;shadow=0;container=1;fillColor=#f8cecc;strokeColor=#b85450;" parent="1hs4knqwZ85UVMhzhQ41-17" vertex="1">
          <mxGeometry x="6.3" y="32" width="70" height="104" as="geometry">
            <mxRectangle y="40" width="50" height="40" as="alternateBounds" />
          </mxGeometry>
        </mxCell>
        <mxCell id="1hs4knqwZ85UVMhzhQ41-25" value="" style="shape=table;startSize=0;container=1;collapsible=0;childLayout=tableLayout;fontSize=16;rounded=1;swimlaneLine=0;fillColor=#f8cecc;strokeColor=#b85450;" parent="1hs4knqwZ85UVMhzhQ41-18" vertex="1">
          <mxGeometry x="15.4" y="16" width="42" height="74" as="geometry" />
        </mxCell>
        <mxCell id="1hs4knqwZ85UVMhzhQ41-26" value="" style="shape=tableRow;horizontal=0;startSize=0;swimlaneHead=0;swimlaneBody=0;strokeColor=inherit;top=0;left=0;bottom=0;right=0;collapsible=0;dropTarget=0;fillColor=none;points=[[0,0.5],[1,0.5]];portConstraint=eastwest;fontSize=16;" parent="1hs4knqwZ85UVMhzhQ41-25" vertex="1">
          <mxGeometry width="42" height="15" as="geometry" />
        </mxCell>
        <mxCell id="1hs4knqwZ85UVMhzhQ41-27" value="" style="shape=partialRectangle;html=1;whiteSpace=wrap;connectable=0;strokeColor=inherit;overflow=hidden;fillColor=none;top=0;left=0;bottom=0;right=0;pointerEvents=1;fontSize=16;" parent="1hs4knqwZ85UVMhzhQ41-26" vertex="1">
          <mxGeometry width="42" height="15" as="geometry">
            <mxRectangle width="42" height="15" as="alternateBounds" />
          </mxGeometry>
        </mxCell>
        <mxCell id="1hs4knqwZ85UVMhzhQ41-30" value="" style="shape=tableRow;horizontal=0;startSize=0;swimlaneHead=0;swimlaneBody=0;strokeColor=inherit;top=0;left=0;bottom=0;right=0;collapsible=0;dropTarget=0;fillColor=none;points=[[0,0.5],[1,0.5]];portConstraint=eastwest;fontSize=16;" parent="1hs4knqwZ85UVMhzhQ41-25" vertex="1">
          <mxGeometry y="15" width="42" height="16" as="geometry" />
        </mxCell>
        <mxCell id="1hs4knqwZ85UVMhzhQ41-31" value="" style="shape=partialRectangle;html=1;whiteSpace=wrap;connectable=0;strokeColor=inherit;overflow=hidden;fillColor=none;top=0;left=0;bottom=0;right=0;pointerEvents=1;fontSize=16;" parent="1hs4knqwZ85UVMhzhQ41-30" vertex="1">
          <mxGeometry width="42" height="16" as="geometry">
            <mxRectangle width="42" height="16" as="alternateBounds" />
          </mxGeometry>
        </mxCell>
        <mxCell id="1hs4knqwZ85UVMhzhQ41-40" style="shape=tableRow;horizontal=0;startSize=0;swimlaneHead=0;swimlaneBody=0;strokeColor=inherit;top=0;left=0;bottom=0;right=0;collapsible=0;dropTarget=0;fillColor=none;points=[[0,0.5],[1,0.5]];portConstraint=eastwest;fontSize=16;" parent="1hs4knqwZ85UVMhzhQ41-25" vertex="1">
          <mxGeometry y="31" width="42" height="15" as="geometry" />
        </mxCell>
        <mxCell id="1hs4knqwZ85UVMhzhQ41-41" style="shape=partialRectangle;html=1;whiteSpace=wrap;connectable=0;strokeColor=inherit;overflow=hidden;fillColor=none;top=0;left=0;bottom=0;right=0;pointerEvents=1;fontSize=16;" parent="1hs4knqwZ85UVMhzhQ41-40" vertex="1">
          <mxGeometry width="42" height="15" as="geometry">
            <mxRectangle width="42" height="15" as="alternateBounds" />
          </mxGeometry>
        </mxCell>
        <mxCell id="1hs4knqwZ85UVMhzhQ41-38" style="shape=tableRow;horizontal=0;startSize=0;swimlaneHead=0;swimlaneBody=0;strokeColor=inherit;top=0;left=0;bottom=0;right=0;collapsible=0;dropTarget=0;fillColor=none;points=[[0,0.5],[1,0.5]];portConstraint=eastwest;fontSize=16;" parent="1hs4knqwZ85UVMhzhQ41-25" vertex="1">
          <mxGeometry y="46" width="42" height="13" as="geometry" />
        </mxCell>
        <mxCell id="1hs4knqwZ85UVMhzhQ41-39" style="shape=partialRectangle;html=1;whiteSpace=wrap;connectable=0;strokeColor=inherit;overflow=hidden;fillColor=none;top=0;left=0;bottom=0;right=0;pointerEvents=1;fontSize=16;" parent="1hs4knqwZ85UVMhzhQ41-38" vertex="1">
          <mxGeometry width="42" height="13" as="geometry">
            <mxRectangle width="42" height="13" as="alternateBounds" />
          </mxGeometry>
        </mxCell>
        <mxCell id="1hs4knqwZ85UVMhzhQ41-34" value="" style="shape=tableRow;horizontal=0;startSize=0;swimlaneHead=0;swimlaneBody=0;strokeColor=inherit;top=0;left=0;bottom=0;right=0;collapsible=0;dropTarget=0;fillColor=none;points=[[0,0.5],[1,0.5]];portConstraint=eastwest;fontSize=16;" parent="1hs4knqwZ85UVMhzhQ41-25" vertex="1">
          <mxGeometry y="59" width="42" height="15" as="geometry" />
        </mxCell>
        <mxCell id="1hs4knqwZ85UVMhzhQ41-35" value="" style="shape=partialRectangle;html=1;whiteSpace=wrap;connectable=0;strokeColor=inherit;overflow=hidden;fillColor=none;top=0;left=0;bottom=0;right=0;pointerEvents=1;fontSize=16;" parent="1hs4knqwZ85UVMhzhQ41-34" vertex="1">
          <mxGeometry width="42" height="15" as="geometry">
            <mxRectangle width="42" height="15" as="alternateBounds" />
          </mxGeometry>
        </mxCell>
        <mxCell id="1hs4knqwZ85UVMhzhQ41-20" value="RAM1&lt;br&gt;&lt;font color=&quot;#ff0505&quot;&gt;dp_ram1&lt;/font&gt;" style="text;html=1;strokeColor=none;fillColor=none;align=center;verticalAlign=middle;whiteSpace=wrap;rounded=0;fontSize=11;fontFamily=Helvetica;fontColor=default;fontStyle=1" parent="1hs4knqwZ85UVMhzhQ41-17" vertex="1">
          <mxGeometry x="21.7" width="42" height="24" as="geometry" />
        </mxCell>
        <mxCell id="1hs4knqwZ85UVMhzhQ41-22" value="" style="endArrow=classic;html=1;rounded=0;exitX=1.006;exitY=0.175;exitDx=0;exitDy=0;exitPerimeter=0;strokeWidth=2;" parent="WIyWlLk6GJQsqaUBKTNV-1" edge="1">
          <mxGeometry width="50" height="50" relative="1" as="geometry">
            <mxPoint x="160.5999999999999" y="369.75" as="sourcePoint" />
            <mxPoint x="250" y="370" as="targetPoint" />
          </mxGeometry>
        </mxCell>
        <mxCell id="1hs4knqwZ85UVMhzhQ41-24" value="8" style="edgeLabel;html=1;align=center;verticalAlign=middle;resizable=0;points=[];" parent="1hs4knqwZ85UVMhzhQ41-22" vertex="1" connectable="0">
          <mxGeometry x="0.2332" relative="1" as="geometry">
            <mxPoint as="offset" />
          </mxGeometry>
        </mxCell>
        <mxCell id="1hs4knqwZ85UVMhzhQ41-42" value="" style="endArrow=classic;html=1;rounded=0;entryX=0.5;entryY=0;entryDx=0;entryDy=0;strokeWidth=2;" parent="WIyWlLk6GJQsqaUBKTNV-1" target="1hs4knqwZ85UVMhzhQ41-44" edge="1">
          <mxGeometry width="50" height="50" relative="1" as="geometry">
            <mxPoint x="184" y="370" as="sourcePoint" />
            <mxPoint x="186.07999999999993" y="635.15" as="targetPoint" />
          </mxGeometry>
        </mxCell>
        <mxCell id="1hs4knqwZ85UVMhzhQ41-43" value="8" style="edgeLabel;html=1;align=center;verticalAlign=middle;resizable=0;points=[];" parent="1hs4knqwZ85UVMhzhQ41-42" vertex="1" connectable="0">
          <mxGeometry x="-0.0647" relative="1" as="geometry">
            <mxPoint as="offset" />
          </mxGeometry>
        </mxCell>
        <mxCell id="1hs4knqwZ85UVMhzhQ41-44" value="ASCII_R" style="text;html=1;strokeColor=none;fillColor=none;align=left;verticalAlign=middle;whiteSpace=wrap;rounded=0;fontSize=11;fontFamily=Helvetica;fontColor=default;" parent="WIyWlLk6GJQsqaUBKTNV-1" vertex="1">
          <mxGeometry x="160" y="640" width="50" height="30" as="geometry" />
        </mxCell>
        <mxCell id="1hs4knqwZ85UVMhzhQ41-45" value="address counter&lt;span style=&quot;font-weight: 400;&quot;&gt;&lt;br&gt;&lt;/span&gt;&lt;font color=&quot;#ff0505&quot;&gt;dp_addr_cnt_1&lt;/font&gt;" style="text;html=1;strokeColor=none;fillColor=none;align=left;verticalAlign=middle;whiteSpace=wrap;rounded=0;fontSize=11;fontFamily=Helvetica;fontColor=default;fontStyle=1" parent="WIyWlLk6GJQsqaUBKTNV-1" vertex="1">
          <mxGeometry x="202" y="436" width="90" height="45" as="geometry" />
        </mxCell>
        <mxCell id="1hs4knqwZ85UVMhzhQ41-46" value="&lt;font color=&quot;#0000ff&quot;&gt;A1&lt;/font&gt;" style="rounded=1;whiteSpace=wrap;html=1;fontSize=12;glass=0;strokeWidth=1;shadow=0;container=1;fontStyle=1;fillColor=#d5e8d4;strokeColor=#82b366;" parent="WIyWlLk6GJQsqaUBKTNV-1" vertex="1">
          <mxGeometry x="212" y="477" width="50" height="55" as="geometry">
            <mxRectangle x="-60" y="550" width="50" height="40" as="alternateBounds" />
          </mxGeometry>
        </mxCell>
        <mxCell id="1hs4knqwZ85UVMhzhQ41-48" value="" style="endArrow=classic;html=1;rounded=0;entryX=0.25;entryY=1;entryDx=0;entryDy=0;exitX=0.179;exitY=-0.006;exitDx=0;exitDy=0;exitPerimeter=0;" parent="WIyWlLk6GJQsqaUBKTNV-1" source="WIyWlLk6GJQsqaUBKTNV-3" target="1hs4knqwZ85UVMhzhQ41-46" edge="1">
          <mxGeometry width="50" height="50" relative="1" as="geometry">
            <mxPoint x="320" y="620" as="sourcePoint" />
            <mxPoint x="254.7100000000001" y="640" as="targetPoint" />
          </mxGeometry>
        </mxCell>
        <mxCell id="1hs4knqwZ85UVMhzhQ41-49" value="2" style="edgeLabel;html=1;align=center;verticalAlign=middle;resizable=0;points=[];" parent="1hs4knqwZ85UVMhzhQ41-48" vertex="1" connectable="0">
          <mxGeometry x="-0.0314" relative="1" as="geometry">
            <mxPoint as="offset" />
          </mxGeometry>
        </mxCell>
        <mxCell id="1hs4knqwZ85UVMhzhQ41-47" value="" style="curved=1;endArrow=classic;html=1;rounded=0;entryX=0.615;entryY=1.001;entryDx=0;entryDy=0;entryPerimeter=0;exitX=1;exitY=0.5;exitDx=0;exitDy=0;" parent="WIyWlLk6GJQsqaUBKTNV-1" target="1hs4knqwZ85UVMhzhQ41-18" edge="1" source="1hs4knqwZ85UVMhzhQ41-46">
          <mxGeometry width="50" height="50" relative="1" as="geometry">
            <mxPoint x="290" y="549" as="sourcePoint" />
            <mxPoint x="310" y="480" as="targetPoint" />
            <Array as="points">
              <mxPoint x="289" y="520" />
            </Array>
          </mxGeometry>
        </mxCell>
        <mxCell id="1hs4knqwZ85UVMhzhQ41-53" value="8&lt;br&gt;address" style="edgeLabel;html=1;align=center;verticalAlign=middle;resizable=0;points=[];" parent="1hs4knqwZ85UVMhzhQ41-47" vertex="1" connectable="0">
          <mxGeometry x="0.4261" y="1" relative="1" as="geometry">
            <mxPoint x="-7" y="48" as="offset" />
          </mxGeometry>
        </mxCell>
        <mxCell id="1hs4knqwZ85UVMhzhQ41-50" value="clr_ram_1_cnt&lt;br&gt;inc_ram_1" style="text;html=1;strokeColor=none;fillColor=none;align=left;verticalAlign=middle;whiteSpace=wrap;rounded=0;fontSize=11;fontFamily=Helvetica;fontColor=default;" parent="WIyWlLk6GJQsqaUBKTNV-1" vertex="1">
          <mxGeometry x="215" y="640" width="70" height="30" as="geometry" />
        </mxCell>
        <mxCell id="1hs4knqwZ85UVMhzhQ41-58" value="" style="endArrow=classic;html=1;rounded=0;entryX=0;entryY=0.5;entryDx=0;entryDy=0;strokeWidth=2;exitX=1;exitY=0.327;exitDx=0;exitDy=0;exitPerimeter=0;" parent="WIyWlLk6GJQsqaUBKTNV-1" target="1hs4knqwZ85UVMhzhQ41-55" edge="1">
          <mxGeometry width="50" height="50" relative="1" as="geometry">
            <mxPoint x="317.2999999999997" y="371.00800000000004" as="sourcePoint" />
            <mxPoint x="525.5149999999999" y="374.1679999999999" as="targetPoint" />
          </mxGeometry>
        </mxCell>
        <mxCell id="1hs4knqwZ85UVMhzhQ41-59" value="8" style="edgeLabel;html=1;align=center;verticalAlign=middle;resizable=0;points=[];" parent="1hs4knqwZ85UVMhzhQ41-58" vertex="1" connectable="0">
          <mxGeometry x="0.2332" relative="1" as="geometry">
            <mxPoint x="-10" as="offset" />
          </mxGeometry>
        </mxCell>
        <mxCell id="1hs4knqwZ85UVMhzhQ41-60" value="data in" style="text;html=1;strokeColor=none;fillColor=none;align=left;verticalAlign=middle;whiteSpace=wrap;rounded=0;fontSize=11;fontFamily=Helvetica;fontColor=default;" parent="WIyWlLk6GJQsqaUBKTNV-1" vertex="1">
          <mxGeometry x="190" y="340" width="50" height="30" as="geometry" />
        </mxCell>
        <mxCell id="1hs4knqwZ85UVMhzhQ41-61" value="td_done" style="text;html=1;strokeColor=none;fillColor=none;align=left;verticalAlign=middle;whiteSpace=wrap;rounded=0;fontSize=11;fontFamily=Helvetica;fontColor=default;" parent="WIyWlLk6GJQsqaUBKTNV-1" vertex="1">
          <mxGeometry x="750" y="695" width="50" height="20" as="geometry" />
        </mxCell>
        <mxCell id="1hs4knqwZ85UVMhzhQ41-62" value="" style="group;fontStyle=1;" parent="WIyWlLk6GJQsqaUBKTNV-1" vertex="1" connectable="0">
          <mxGeometry x="693" y="300" width="97" height="130" as="geometry" />
        </mxCell>
        <mxCell id="1hs4knqwZ85UVMhzhQ41-63" value="&lt;b&gt;&lt;font color=&quot;#0000ff&quot;&gt;B&lt;/font&gt;&lt;/b&gt;" style="rounded=1;whiteSpace=wrap;html=1;fontSize=12;glass=0;strokeWidth=1;shadow=0;container=1;fillColor=#d5e8d4;strokeColor=#82b366;" parent="1hs4knqwZ85UVMhzhQ41-62" vertex="1">
          <mxGeometry y="45.878235294117644" width="97" height="99.41176470588235" as="geometry" />
        </mxCell>
        <mxCell id="1hs4knqwZ85UVMhzhQ41-65" value="Mod m counter&lt;br&gt;&lt;font color=&quot;#ff0505&quot;&gt;dp_mod_m_t_ff&lt;/font&gt;" style="text;html=1;strokeColor=none;fillColor=none;align=center;verticalAlign=middle;whiteSpace=wrap;rounded=0;fontSize=11;fontFamily=Helvetica;fontColor=default;fontStyle=1" parent="1hs4knqwZ85UVMhzhQ41-62" vertex="1">
          <mxGeometry x="-9.7" y="13" width="106.7" height="22.941176470588232" as="geometry" />
        </mxCell>
        <mxCell id="1hs4knqwZ85UVMhzhQ41-104" value="mcnt_in" style="text;html=1;strokeColor=none;fillColor=none;align=left;verticalAlign=middle;whiteSpace=wrap;rounded=0;fontSize=11;fontFamily=Helvetica;fontColor=default;" parent="1hs4knqwZ85UVMhzhQ41-62" vertex="1">
          <mxGeometry y="58.882352941176464" width="48.5" height="15.294117647058822" as="geometry" />
        </mxCell>
        <mxCell id="1hs4knqwZ85UVMhzhQ41-68" value="T FF&lt;span style=&quot;font-weight: normal;&quot;&gt;&lt;br&gt;&lt;/span&gt;&lt;font color=&quot;#ff0505&quot;&gt;dp_tffen&lt;/font&gt;" style="text;html=1;strokeColor=none;fillColor=none;align=center;verticalAlign=middle;whiteSpace=wrap;rounded=0;fontSize=11;fontFamily=Helvetica;fontColor=default;fontStyle=1" parent="WIyWlLk6GJQsqaUBKTNV-1" vertex="1">
          <mxGeometry x="823" y="295" width="110" height="45" as="geometry" />
        </mxCell>
        <mxCell id="1hs4knqwZ85UVMhzhQ41-69" value="&lt;b&gt;T&lt;br&gt;FF&lt;/b&gt;" style="rounded=1;whiteSpace=wrap;html=1;fontSize=12;glass=0;strokeWidth=1;shadow=0;container=1;align=center;fillColor=#f8cecc;strokeColor=#b85450;verticalAlign=bottom;" parent="WIyWlLk6GJQsqaUBKTNV-1" vertex="1">
          <mxGeometry x="843" y="345" width="70" height="70" as="geometry">
            <mxRectangle x="-60" y="550" width="50" height="40" as="alternateBounds" />
          </mxGeometry>
        </mxCell>
        <mxCell id="1hs4knqwZ85UVMhzhQ41-70" value="" style="endArrow=classic;html=1;rounded=0;entryX=0.57;entryY=0.997;entryDx=0;entryDy=0;entryPerimeter=0;exitX=0.817;exitY=0.014;exitDx=0;exitDy=0;exitPerimeter=0;" parent="WIyWlLk6GJQsqaUBKTNV-1" target="1hs4knqwZ85UVMhzhQ41-69" edge="1" source="WIyWlLk6GJQsqaUBKTNV-3">
          <mxGeometry width="50" height="50" relative="1" as="geometry">
            <mxPoint x="860" y="600" as="sourcePoint" />
            <mxPoint x="690" y="400" as="targetPoint" />
          </mxGeometry>
        </mxCell>
        <mxCell id="1hs4knqwZ85UVMhzhQ41-71" value="1" style="edgeLabel;html=1;align=center;verticalAlign=middle;resizable=0;points=[];" parent="1hs4knqwZ85UVMhzhQ41-70" vertex="1" connectable="0">
          <mxGeometry x="-0.199" y="-1" relative="1" as="geometry">
            <mxPoint as="offset" />
          </mxGeometry>
        </mxCell>
        <mxCell id="1hs4knqwZ85UVMhzhQ41-72" value="clr FF" style="text;html=1;strokeColor=none;fillColor=none;align=left;verticalAlign=middle;whiteSpace=wrap;rounded=0;fontSize=11;fontFamily=Helvetica;fontColor=default;" parent="WIyWlLk6GJQsqaUBKTNV-1" vertex="1">
          <mxGeometry x="776" y="640" width="50" height="30" as="geometry" />
        </mxCell>
        <mxCell id="1hs4knqwZ85UVMhzhQ41-74" value="" style="endArrow=classic;html=1;rounded=0;exitX=1.009;exitY=0.215;exitDx=0;exitDy=0;exitPerimeter=0;entryX=-0.001;entryY=0.335;entryDx=0;entryDy=0;entryPerimeter=0;" parent="WIyWlLk6GJQsqaUBKTNV-1" source="1hs4knqwZ85UVMhzhQ41-63" target="1hs4knqwZ85UVMhzhQ41-69" edge="1">
          <mxGeometry width="50" height="50" relative="1" as="geometry">
            <mxPoint x="793" y="380" as="sourcePoint" />
            <mxPoint x="843" y="330" as="targetPoint" />
          </mxGeometry>
        </mxCell>
        <mxCell id="1hs4knqwZ85UVMhzhQ41-75" value="1" style="edgeLabel;html=1;align=center;verticalAlign=middle;resizable=0;points=[];" parent="1hs4knqwZ85UVMhzhQ41-74" vertex="1" connectable="0">
          <mxGeometry x="-0.1081" y="1" relative="1" as="geometry">
            <mxPoint as="offset" />
          </mxGeometry>
        </mxCell>
        <mxCell id="1hs4knqwZ85UVMhzhQ41-76" value="0.5 sec timer&lt;br&gt;&lt;font color=&quot;#ff0505&quot;&gt;dp_mod_m_timer&lt;/font&gt;" style="text;html=1;strokeColor=none;fillColor=none;align=center;verticalAlign=middle;whiteSpace=wrap;rounded=0;fontSize=11;fontFamily=Helvetica;fontColor=default;fontStyle=1" parent="WIyWlLk6GJQsqaUBKTNV-1" vertex="1">
          <mxGeometry x="550" y="482" width="110" height="45" as="geometry" />
        </mxCell>
        <mxCell id="1hs4knqwZ85UVMhzhQ41-77" value="" style="rounded=1;whiteSpace=wrap;html=1;fontSize=12;glass=0;strokeWidth=1;shadow=0;container=1;fillColor=#d5e8d4;strokeColor=#82b366;" parent="WIyWlLk6GJQsqaUBKTNV-1" vertex="1">
          <mxGeometry x="570" y="519" width="70" height="70" as="geometry">
            <mxRectangle x="-60" y="550" width="50" height="40" as="alternateBounds" />
          </mxGeometry>
        </mxCell>
        <mxCell id="1hs4knqwZ85UVMhzhQ41-78" value="" style="endArrow=classic;html=1;rounded=0;exitX=0.628;exitY=-0.02;exitDx=0;exitDy=0;exitPerimeter=0;entryX=0.25;entryY=1;entryDx=0;entryDy=0;" parent="WIyWlLk6GJQsqaUBKTNV-1" edge="1" target="1hs4knqwZ85UVMhzhQ41-77">
          <mxGeometry width="50" height="50" relative="1" as="geometry">
            <mxPoint x="588.8400000000001" y="636.8" as="sourcePoint" />
            <mxPoint x="510.7900000000002" y="589.7" as="targetPoint" />
          </mxGeometry>
        </mxCell>
        <mxCell id="rURlg7K0j95UI2r0FF_1-33" value="1" style="edgeLabel;html=1;align=center;verticalAlign=middle;resizable=0;points=[];" vertex="1" connectable="0" parent="1hs4knqwZ85UVMhzhQ41-78">
          <mxGeometry x="0.0529" y="-1" relative="1" as="geometry">
            <mxPoint as="offset" />
          </mxGeometry>
        </mxCell>
        <mxCell id="1hs4knqwZ85UVMhzhQ41-79" value="" style="endArrow=classic;html=1;rounded=0;exitX=0.654;exitY=1.006;exitDx=0;exitDy=0;exitPerimeter=0;entryX=0.541;entryY=-0.002;entryDx=0;entryDy=0;entryPerimeter=0;" parent="WIyWlLk6GJQsqaUBKTNV-1" source="1hs4knqwZ85UVMhzhQ41-77" edge="1">
          <mxGeometry width="50" height="50" relative="1" as="geometry">
            <mxPoint x="507" y="559" as="sourcePoint" />
            <mxPoint x="614.23" y="638.78" as="targetPoint" />
          </mxGeometry>
        </mxCell>
        <mxCell id="1hs4knqwZ85UVMhzhQ41-81" value="1" style="edgeLabel;html=1;align=center;verticalAlign=middle;resizable=0;points=[];" parent="1hs4knqwZ85UVMhzhQ41-79" vertex="1" connectable="0">
          <mxGeometry x="-0.3123" y="1" relative="1" as="geometry">
            <mxPoint y="7" as="offset" />
          </mxGeometry>
        </mxCell>
        <mxCell id="1hs4knqwZ85UVMhzhQ41-82" value="data out" style="text;html=1;strokeColor=none;fillColor=none;align=left;verticalAlign=middle;whiteSpace=wrap;rounded=0;fontSize=11;fontFamily=Helvetica;fontColor=default;" parent="WIyWlLk6GJQsqaUBKTNV-1" vertex="1">
          <mxGeometry x="414" y="375" width="50" height="20" as="geometry" />
        </mxCell>
        <mxCell id="1hs4knqwZ85UVMhzhQ41-83" value="td_on" style="text;html=1;strokeColor=none;fillColor=none;align=left;verticalAlign=middle;whiteSpace=wrap;rounded=0;fontSize=11;fontFamily=Helvetica;fontColor=default;" parent="WIyWlLk6GJQsqaUBKTNV-1" vertex="1">
          <mxGeometry x="718" y="675" width="50" height="20" as="geometry" />
        </mxCell>
        <mxCell id="1hs4knqwZ85UVMhzhQ41-84" value="" style="endArrow=classic;html=1;rounded=0;entryX=0.842;entryY=1.002;entryDx=0;entryDy=0;entryPerimeter=0;exitX=0.259;exitY=-0.009;exitDx=0;exitDy=0;exitPerimeter=0;" parent="WIyWlLk6GJQsqaUBKTNV-1" target="1hs4knqwZ85UVMhzhQ41-18" edge="1" source="WIyWlLk6GJQsqaUBKTNV-3">
          <mxGeometry width="50" height="50" relative="1" as="geometry">
            <mxPoint x="333" y="640" as="sourcePoint" />
            <mxPoint x="380" y="590" as="targetPoint" />
          </mxGeometry>
        </mxCell>
        <mxCell id="1hs4knqwZ85UVMhzhQ41-85" value="1" style="edgeLabel;html=1;align=center;verticalAlign=middle;resizable=0;points=[];" parent="1hs4knqwZ85UVMhzhQ41-84" vertex="1" connectable="0">
          <mxGeometry x="-0.3466" y="-1" relative="1" as="geometry">
            <mxPoint as="offset" />
          </mxGeometry>
        </mxCell>
        <mxCell id="1hs4knqwZ85UVMhzhQ41-86" value="wr_ram_1" style="text;html=1;strokeColor=none;fillColor=none;align=left;verticalAlign=middle;whiteSpace=wrap;rounded=0;fontSize=11;fontFamily=Helvetica;fontColor=default;" parent="WIyWlLk6GJQsqaUBKTNV-1" vertex="1">
          <mxGeometry x="300" y="635" width="26" height="30" as="geometry" />
        </mxCell>
        <mxCell id="1hs4knqwZ85UVMhzhQ41-88" value="" style="verticalLabelPosition=middle;verticalAlign=middle;html=1;shape=trapezoid;perimeter=trapezoidPerimeter;whiteSpace=wrap;size=0.23;arcSize=10;flipV=1;labelPosition=center;align=center;rotation=91;fillColor=#dae8fc;strokeColor=#6c8ebf;" parent="WIyWlLk6GJQsqaUBKTNV-1" vertex="1">
          <mxGeometry x="933" y="336" width="100" height="60" as="geometry" />
        </mxCell>
        <mxCell id="1hs4knqwZ85UVMhzhQ41-89" value="" style="endArrow=classic;html=1;rounded=0;exitX=1;exitY=0.25;exitDx=0;exitDy=0;" parent="WIyWlLk6GJQsqaUBKTNV-1" edge="1">
          <mxGeometry width="50" height="50" relative="1" as="geometry">
            <mxPoint x="913" y="365.5" as="sourcePoint" />
            <mxPoint x="953" y="366" as="targetPoint" />
          </mxGeometry>
        </mxCell>
        <mxCell id="1hs4knqwZ85UVMhzhQ41-91" value="1" style="edgeLabel;html=1;align=center;verticalAlign=middle;resizable=0;points=[];" parent="1hs4knqwZ85UVMhzhQ41-89" vertex="1" connectable="0">
          <mxGeometry x="-0.2715" relative="1" as="geometry">
            <mxPoint as="offset" />
          </mxGeometry>
        </mxCell>
        <mxCell id="1hs4knqwZ85UVMhzhQ41-90" value="Speaker" style="text;html=1;strokeColor=none;fillColor=none;align=left;verticalAlign=middle;whiteSpace=wrap;rounded=0;fontSize=11;fontFamily=Helvetica;fontColor=default;" parent="WIyWlLk6GJQsqaUBKTNV-1" vertex="1">
          <mxGeometry x="963" y="353" width="50" height="20" as="geometry" />
        </mxCell>
        <mxCell id="1hs4knqwZ85UVMhzhQ41-93" value="FSMD - Piano / music box" style="text;html=1;strokeColor=none;fillColor=none;align=left;verticalAlign=middle;whiteSpace=wrap;rounded=0;fontSize=40;fontFamily=Helvetica;fontColor=default;fontStyle=1" parent="WIyWlLk6GJQsqaUBKTNV-1" vertex="1">
          <mxGeometry x="60" y="80" width="580" height="90" as="geometry" />
        </mxCell>
        <mxCell id="1hs4knqwZ85UVMhzhQ41-94" value="S0" style="rounded=1;whiteSpace=wrap;html=1;fontFamily=Helvetica;fontSize=11;fontColor=#FF0505;fillColor=#FFF2CC;strokeWidth=0;align=left;verticalAlign=top;fontStyle=1" parent="WIyWlLk6GJQsqaUBKTNV-1" vertex="1">
          <mxGeometry x="1130" y="450" width="170" height="190" as="geometry" />
        </mxCell>
        <mxCell id="1hs4knqwZ85UVMhzhQ41-95" style="edgeStyle=orthogonalEdgeStyle;shape=connector;curved=0;rounded=1;orthogonalLoop=1;jettySize=auto;html=1;exitX=0.5;exitY=1;exitDx=0;exitDy=0;entryX=0.5;entryY=0;entryDx=0;entryDy=0;labelBackgroundColor=default;strokeColor=default;align=center;verticalAlign=middle;fontFamily=Helvetica;fontSize=11;fontColor=default;endArrow=block;endFill=1;" parent="WIyWlLk6GJQsqaUBKTNV-1" source="1hs4knqwZ85UVMhzhQ41-96" target="1hs4knqwZ85UVMhzhQ41-99" edge="1">
          <mxGeometry relative="1" as="geometry" />
        </mxCell>
        <mxCell id="1hs4knqwZ85UVMhzhQ41-96" value="" style="rounded=0;whiteSpace=wrap;html=1;fontFamily=Helvetica;fontSize=11;fontColor=default;" parent="WIyWlLk6GJQsqaUBKTNV-1" vertex="1">
          <mxGeometry x="1180" y="470" width="80" height="30" as="geometry" />
        </mxCell>
        <mxCell id="1hs4knqwZ85UVMhzhQ41-97" value="ascii_r = dig3?" style="shape=hexagon;perimeter=hexagonPerimeter2;whiteSpace=wrap;html=1;fixedSize=1;fontFamily=Helvetica;fontSize=11;fontColor=default;" parent="WIyWlLk6GJQsqaUBKTNV-1" vertex="1">
          <mxGeometry x="1160" y="585" width="120" height="30" as="geometry" />
        </mxCell>
        <mxCell id="1hs4knqwZ85UVMhzhQ41-98" style="edgeStyle=orthogonalEdgeStyle;shape=connector;curved=0;rounded=1;orthogonalLoop=1;jettySize=auto;html=1;exitX=0.5;exitY=1;exitDx=0;exitDy=0;entryX=0.5;entryY=0;entryDx=0;entryDy=0;labelBackgroundColor=default;strokeColor=default;align=center;verticalAlign=middle;fontFamily=Helvetica;fontSize=11;fontColor=default;endArrow=block;endFill=1;" parent="WIyWlLk6GJQsqaUBKTNV-1" source="1hs4knqwZ85UVMhzhQ41-99" target="1hs4knqwZ85UVMhzhQ41-97" edge="1">
          <mxGeometry relative="1" as="geometry" />
        </mxCell>
        <mxCell id="1hs4knqwZ85UVMhzhQ41-99" value="rx_done_tick = &#39;1&#39;?" style="shape=hexagon;perimeter=hexagonPerimeter2;whiteSpace=wrap;html=1;fixedSize=1;fontFamily=Helvetica;fontSize=11;fontColor=default;" parent="WIyWlLk6GJQsqaUBKTNV-1" vertex="1">
          <mxGeometry x="1160" y="530" width="120" height="30" as="geometry" />
        </mxCell>
        <mxCell id="1hs4knqwZ85UVMhzhQ41-100" value="F" style="text;html=1;strokeColor=none;fillColor=none;align=left;verticalAlign=middle;whiteSpace=wrap;rounded=0;fontSize=11;fontFamily=Helvetica;fontColor=default;" parent="WIyWlLk6GJQsqaUBKTNV-1" vertex="1">
          <mxGeometry x="1146" y="519" width="16" height="30" as="geometry" />
        </mxCell>
        <mxCell id="1hs4knqwZ85UVMhzhQ41-101" value="F" style="text;html=1;strokeColor=none;fillColor=none;align=left;verticalAlign=middle;whiteSpace=wrap;rounded=0;fontSize=11;fontFamily=Helvetica;fontColor=default;" parent="WIyWlLk6GJQsqaUBKTNV-1" vertex="1">
          <mxGeometry x="1146" y="570" width="16" height="30" as="geometry" />
        </mxCell>
        <mxCell id="1hs4knqwZ85UVMhzhQ41-102" value="T" style="text;html=1;strokeColor=none;fillColor=none;align=left;verticalAlign=middle;whiteSpace=wrap;rounded=0;fontSize=11;fontFamily=Helvetica;fontColor=default;" parent="WIyWlLk6GJQsqaUBKTNV-1" vertex="1">
          <mxGeometry x="1228" y="556" width="16" height="30" as="geometry" />
        </mxCell>
        <mxCell id="1hs4knqwZ85UVMhzhQ41-103" value="T" style="text;html=1;strokeColor=none;fillColor=none;align=left;verticalAlign=middle;whiteSpace=wrap;rounded=0;fontSize=11;fontFamily=Helvetica;fontColor=default;" parent="WIyWlLk6GJQsqaUBKTNV-1" vertex="1">
          <mxGeometry x="1228" y="615" width="16" height="30" as="geometry" />
        </mxCell>
        <mxCell id="1hs4knqwZ85UVMhzhQ41-105" value="zero_tick" style="text;html=1;strokeColor=none;fillColor=none;align=right;verticalAlign=middle;whiteSpace=wrap;rounded=0;fontSize=11;fontFamily=Helvetica;fontColor=default;" parent="WIyWlLk6GJQsqaUBKTNV-1" vertex="1">
          <mxGeometry x="742" y="359" width="50" height="20" as="geometry" />
        </mxCell>
        <mxCell id="1hs4knqwZ85UVMhzhQ41-106" value="" style="endArrow=classic;html=1;rounded=0;" parent="WIyWlLk6GJQsqaUBKTNV-1" edge="1">
          <mxGeometry width="50" height="50" relative="1" as="geometry">
            <mxPoint x="713" y="490" as="sourcePoint" />
            <mxPoint x="713" y="469" as="targetPoint" />
          </mxGeometry>
        </mxCell>
        <mxCell id="1hs4knqwZ85UVMhzhQ41-107" value="clk" style="text;html=1;strokeColor=none;fillColor=none;align=center;verticalAlign=middle;whiteSpace=wrap;rounded=0;fontSize=11;fontFamily=Helvetica;fontColor=default;" parent="WIyWlLk6GJQsqaUBKTNV-1" vertex="1">
          <mxGeometry x="688" y="488" width="50" height="20" as="geometry" />
        </mxCell>
        <mxCell id="1hs4knqwZ85UVMhzhQ41-108" value="zero_tick" style="text;html=1;strokeColor=none;fillColor=none;align=right;verticalAlign=middle;whiteSpace=wrap;rounded=0;fontSize=11;fontFamily=Helvetica;fontColor=default;" parent="WIyWlLk6GJQsqaUBKTNV-1" vertex="1">
          <mxGeometry x="851" y="360" width="42" height="20" as="geometry" />
        </mxCell>
        <mxCell id="1hs4knqwZ85UVMhzhQ41-109" value="r_reg" style="text;html=1;strokeColor=none;fillColor=none;align=center;verticalAlign=middle;whiteSpace=wrap;rounded=0;fontSize=11;fontFamily=Helvetica;fontColor=default;" parent="WIyWlLk6GJQsqaUBKTNV-1" vertex="1">
          <mxGeometry x="908" y="345" width="50" height="20" as="geometry" />
        </mxCell>
        <mxCell id="1hs4knqwZ85UVMhzhQ41-57" value="Code converter&lt;br&gt;&lt;font color=&quot;#ff0505&quot;&gt;dp_code_ converter&lt;/font&gt;" style="text;html=1;strokeColor=none;fillColor=none;align=center;verticalAlign=middle;whiteSpace=wrap;rounded=0;fontSize=11;fontFamily=Helvetica;fontColor=default;fontStyle=1" parent="WIyWlLk6GJQsqaUBKTNV-1" vertex="1">
          <mxGeometry x="540" y="280" width="77" height="24" as="geometry" />
        </mxCell>
        <mxCell id="1hs4knqwZ85UVMhzhQ41-55" value="" style="rounded=1;whiteSpace=wrap;html=1;fontSize=12;glass=0;strokeWidth=1;shadow=0;container=1;fillColor=#f8cecc;strokeColor=#b85450;" parent="WIyWlLk6GJQsqaUBKTNV-1" vertex="1">
          <mxGeometry x="527" y="324" width="70" height="104" as="geometry" />
        </mxCell>
        <mxCell id="1hs4knqwZ85UVMhzhQ41-56" value="RxD" style="text;html=1;strokeColor=none;fillColor=none;align=left;verticalAlign=middle;whiteSpace=wrap;rounded=0;fontSize=11;fontFamily=Helvetica;fontColor=default;" parent="1hs4knqwZ85UVMhzhQ41-55" vertex="1">
          <mxGeometry y="12" width="35" height="24" as="geometry" />
        </mxCell>
        <mxCell id="rURlg7K0j95UI2r0FF_1-0" value="" style="rounded=1;whiteSpace=wrap;html=1;fontSize=12;glass=0;strokeWidth=1;shadow=0;container=1;fillColor=#f8cecc;strokeColor=#b85450;" vertex="1" parent="WIyWlLk6GJQsqaUBKTNV-1">
          <mxGeometry x="344" y="236" width="70" height="104" as="geometry">
            <mxRectangle y="40" width="50" height="40" as="alternateBounds" />
          </mxGeometry>
        </mxCell>
        <mxCell id="rURlg7K0j95UI2r0FF_1-1" value="" style="shape=table;startSize=0;container=1;collapsible=0;childLayout=tableLayout;fontSize=16;rounded=1;swimlaneLine=0;fillColor=#f8cecc;strokeColor=#b85450;" vertex="1" parent="rURlg7K0j95UI2r0FF_1-0">
          <mxGeometry x="15.4" y="16" width="42" height="74" as="geometry" />
        </mxCell>
        <mxCell id="rURlg7K0j95UI2r0FF_1-2" value="" style="shape=tableRow;horizontal=0;startSize=0;swimlaneHead=0;swimlaneBody=0;strokeColor=inherit;top=0;left=0;bottom=0;right=0;collapsible=0;dropTarget=0;fillColor=none;points=[[0,0.5],[1,0.5]];portConstraint=eastwest;fontSize=16;" vertex="1" parent="rURlg7K0j95UI2r0FF_1-1">
          <mxGeometry width="42" height="15" as="geometry" />
        </mxCell>
        <mxCell id="rURlg7K0j95UI2r0FF_1-3" value="" style="shape=partialRectangle;html=1;whiteSpace=wrap;connectable=0;strokeColor=inherit;overflow=hidden;fillColor=none;top=0;left=0;bottom=0;right=0;pointerEvents=1;fontSize=16;" vertex="1" parent="rURlg7K0j95UI2r0FF_1-2">
          <mxGeometry width="42" height="15" as="geometry">
            <mxRectangle width="42" height="15" as="alternateBounds" />
          </mxGeometry>
        </mxCell>
        <mxCell id="rURlg7K0j95UI2r0FF_1-4" value="" style="shape=tableRow;horizontal=0;startSize=0;swimlaneHead=0;swimlaneBody=0;strokeColor=inherit;top=0;left=0;bottom=0;right=0;collapsible=0;dropTarget=0;fillColor=none;points=[[0,0.5],[1,0.5]];portConstraint=eastwest;fontSize=16;" vertex="1" parent="rURlg7K0j95UI2r0FF_1-1">
          <mxGeometry y="15" width="42" height="16" as="geometry" />
        </mxCell>
        <mxCell id="rURlg7K0j95UI2r0FF_1-5" value="" style="shape=partialRectangle;html=1;whiteSpace=wrap;connectable=0;strokeColor=inherit;overflow=hidden;fillColor=none;top=0;left=0;bottom=0;right=0;pointerEvents=1;fontSize=16;" vertex="1" parent="rURlg7K0j95UI2r0FF_1-4">
          <mxGeometry width="42" height="16" as="geometry">
            <mxRectangle width="42" height="16" as="alternateBounds" />
          </mxGeometry>
        </mxCell>
        <mxCell id="rURlg7K0j95UI2r0FF_1-6" style="shape=tableRow;horizontal=0;startSize=0;swimlaneHead=0;swimlaneBody=0;strokeColor=inherit;top=0;left=0;bottom=0;right=0;collapsible=0;dropTarget=0;fillColor=none;points=[[0,0.5],[1,0.5]];portConstraint=eastwest;fontSize=16;" vertex="1" parent="rURlg7K0j95UI2r0FF_1-1">
          <mxGeometry y="31" width="42" height="15" as="geometry" />
        </mxCell>
        <mxCell id="rURlg7K0j95UI2r0FF_1-7" style="shape=partialRectangle;html=1;whiteSpace=wrap;connectable=0;strokeColor=inherit;overflow=hidden;fillColor=none;top=0;left=0;bottom=0;right=0;pointerEvents=1;fontSize=16;" vertex="1" parent="rURlg7K0j95UI2r0FF_1-6">
          <mxGeometry width="42" height="15" as="geometry">
            <mxRectangle width="42" height="15" as="alternateBounds" />
          </mxGeometry>
        </mxCell>
        <mxCell id="rURlg7K0j95UI2r0FF_1-8" style="shape=tableRow;horizontal=0;startSize=0;swimlaneHead=0;swimlaneBody=0;strokeColor=inherit;top=0;left=0;bottom=0;right=0;collapsible=0;dropTarget=0;fillColor=none;points=[[0,0.5],[1,0.5]];portConstraint=eastwest;fontSize=16;" vertex="1" parent="rURlg7K0j95UI2r0FF_1-1">
          <mxGeometry y="46" width="42" height="13" as="geometry" />
        </mxCell>
        <mxCell id="rURlg7K0j95UI2r0FF_1-9" style="shape=partialRectangle;html=1;whiteSpace=wrap;connectable=0;strokeColor=inherit;overflow=hidden;fillColor=none;top=0;left=0;bottom=0;right=0;pointerEvents=1;fontSize=16;" vertex="1" parent="rURlg7K0j95UI2r0FF_1-8">
          <mxGeometry width="42" height="13" as="geometry">
            <mxRectangle width="42" height="13" as="alternateBounds" />
          </mxGeometry>
        </mxCell>
        <mxCell id="rURlg7K0j95UI2r0FF_1-10" value="" style="shape=tableRow;horizontal=0;startSize=0;swimlaneHead=0;swimlaneBody=0;strokeColor=inherit;top=0;left=0;bottom=0;right=0;collapsible=0;dropTarget=0;fillColor=none;points=[[0,0.5],[1,0.5]];portConstraint=eastwest;fontSize=16;" vertex="1" parent="rURlg7K0j95UI2r0FF_1-1">
          <mxGeometry y="59" width="42" height="15" as="geometry" />
        </mxCell>
        <mxCell id="rURlg7K0j95UI2r0FF_1-11" value="" style="shape=partialRectangle;html=1;whiteSpace=wrap;connectable=0;strokeColor=inherit;overflow=hidden;fillColor=none;top=0;left=0;bottom=0;right=0;pointerEvents=1;fontSize=16;" vertex="1" parent="rURlg7K0j95UI2r0FF_1-10">
          <mxGeometry width="42" height="15" as="geometry">
            <mxRectangle width="42" height="15" as="alternateBounds" />
          </mxGeometry>
        </mxCell>
        <mxCell id="rURlg7K0j95UI2r0FF_1-12" value="RAM2&lt;br&gt;&lt;font color=&quot;#ff0505&quot;&gt;dp_ram2&lt;/font&gt;" style="text;html=1;strokeColor=none;fillColor=none;align=center;verticalAlign=middle;whiteSpace=wrap;rounded=0;fontSize=11;fontFamily=Helvetica;fontColor=default;fontStyle=1" vertex="1" parent="WIyWlLk6GJQsqaUBKTNV-1">
          <mxGeometry x="359.4" y="204" width="42" height="24" as="geometry" />
        </mxCell>
        <mxCell id="rURlg7K0j95UI2r0FF_1-13" value="&lt;font color=&quot;#0000ff&quot;&gt;A2&lt;/font&gt;" style="rounded=1;whiteSpace=wrap;html=1;fontSize=12;glass=0;strokeWidth=1;shadow=0;container=1;fontStyle=1;fillColor=#d5e8d4;strokeColor=#82b366;" vertex="1" parent="WIyWlLk6GJQsqaUBKTNV-1">
          <mxGeometry x="450" y="204" width="50" height="55" as="geometry">
            <mxRectangle x="-60" y="550" width="50" height="40" as="alternateBounds" />
          </mxGeometry>
        </mxCell>
        <mxCell id="rURlg7K0j95UI2r0FF_1-14" value="" style="curved=1;endArrow=classic;html=1;rounded=0;entryX=0.943;entryY=0.135;entryDx=0;entryDy=0;exitX=0.5;exitY=1;exitDx=0;exitDy=0;entryPerimeter=0;" edge="1" parent="WIyWlLk6GJQsqaUBKTNV-1" source="rURlg7K0j95UI2r0FF_1-13" target="rURlg7K0j95UI2r0FF_1-0">
          <mxGeometry width="50" height="50" relative="1" as="geometry">
            <mxPoint x="404" y="449" as="sourcePoint" />
            <mxPoint x="403" y="340" as="targetPoint" />
            <Array as="points">
              <mxPoint x="460" y="280" />
              <mxPoint x="420" y="270" />
            </Array>
          </mxGeometry>
        </mxCell>
        <mxCell id="rURlg7K0j95UI2r0FF_1-15" value="8&lt;br&gt;address" style="edgeLabel;html=1;align=center;verticalAlign=middle;resizable=0;points=[];" vertex="1" connectable="0" parent="rURlg7K0j95UI2r0FF_1-14">
          <mxGeometry x="0.4261" y="1" relative="1" as="geometry">
            <mxPoint x="17" y="19" as="offset" />
          </mxGeometry>
        </mxCell>
        <mxCell id="rURlg7K0j95UI2r0FF_1-17" value="" style="endArrow=none;html=1;rounded=0;exitX=0.25;exitY=1;exitDx=0;exitDy=0;strokeWidth=2;" edge="1" parent="WIyWlLk6GJQsqaUBKTNV-1">
          <mxGeometry width="50" height="50" relative="1" as="geometry">
            <mxPoint x="183.5" y="370" as="sourcePoint" />
            <mxPoint x="184" y="260" as="targetPoint" />
          </mxGeometry>
        </mxCell>
        <mxCell id="rURlg7K0j95UI2r0FF_1-21" value="" style="endArrow=classic;html=2;rounded=0;entryX=0;entryY=0.25;entryDx=0;entryDy=0;strokeWidth=2;" edge="1" parent="WIyWlLk6GJQsqaUBKTNV-1" target="rURlg7K0j95UI2r0FF_1-0">
          <mxGeometry width="50" height="50" relative="1" as="geometry">
            <mxPoint x="180" y="260" as="sourcePoint" />
            <mxPoint x="234" y="219" as="targetPoint" />
          </mxGeometry>
        </mxCell>
        <mxCell id="rURlg7K0j95UI2r0FF_1-22" value="8" style="edgeLabel;html=1;align=center;verticalAlign=middle;resizable=0;points=[];" vertex="1" connectable="0" parent="rURlg7K0j95UI2r0FF_1-21">
          <mxGeometry x="0.0714" relative="1" as="geometry">
            <mxPoint as="offset" />
          </mxGeometry>
        </mxCell>
        <mxCell id="rURlg7K0j95UI2r0FF_1-24" value="" style="endArrow=none;html=1;rounded=0;exitX=1;exitY=0.75;exitDx=0;exitDy=0;strokeWidth=2;" edge="1" parent="WIyWlLk6GJQsqaUBKTNV-1">
          <mxGeometry width="50" height="50" relative="1" as="geometry">
            <mxPoint x="414.0000000000002" y="316.9999999999999" as="sourcePoint" />
            <mxPoint x="460" y="373" as="targetPoint" />
            <Array as="points">
              <mxPoint x="460" y="317" />
            </Array>
          </mxGeometry>
        </mxCell>
        <mxCell id="rURlg7K0j95UI2r0FF_1-25" value="" style="endArrow=classic;html=1;rounded=0;entryX=0.75;entryY=1;entryDx=0;entryDy=0;exitX=0.234;exitY=0.08;exitDx=0;exitDy=0;exitPerimeter=0;" edge="1" parent="WIyWlLk6GJQsqaUBKTNV-1" source="rURlg7K0j95UI2r0FF_1-27" target="rURlg7K0j95UI2r0FF_1-0">
          <mxGeometry width="50" height="50" relative="1" as="geometry">
            <mxPoint x="401.4" y="644.5" as="sourcePoint" />
            <mxPoint x="399.4" y="445.5" as="targetPoint" />
          </mxGeometry>
        </mxCell>
        <mxCell id="rURlg7K0j95UI2r0FF_1-26" value="1" style="edgeLabel;html=1;align=center;verticalAlign=middle;resizable=0;points=[];" vertex="1" connectable="0" parent="rURlg7K0j95UI2r0FF_1-25">
          <mxGeometry x="-0.3466" y="-1" relative="1" as="geometry">
            <mxPoint as="offset" />
          </mxGeometry>
        </mxCell>
        <mxCell id="rURlg7K0j95UI2r0FF_1-27" value="wr_ram_2" style="text;html=1;strokeColor=none;fillColor=none;align=left;verticalAlign=middle;whiteSpace=wrap;rounded=0;fontSize=11;fontFamily=Helvetica;fontColor=default;" vertex="1" parent="WIyWlLk6GJQsqaUBKTNV-1">
          <mxGeometry x="385" y="637" width="55" height="30" as="geometry" />
        </mxCell>
        <mxCell id="rURlg7K0j95UI2r0FF_1-28" value="clr_ram_2_cnt&lt;br&gt;inc_ram_2" style="text;html=1;strokeColor=none;fillColor=none;align=left;verticalAlign=middle;whiteSpace=wrap;rounded=0;fontSize=11;fontFamily=Helvetica;fontColor=default;" vertex="1" parent="WIyWlLk6GJQsqaUBKTNV-1">
          <mxGeometry x="449" y="642" width="70" height="30" as="geometry" />
        </mxCell>
        <mxCell id="rURlg7K0j95UI2r0FF_1-30" value="" style="endArrow=classic;html=1;rounded=0;entryX=0.842;entryY=1.002;entryDx=0;entryDy=0;entryPerimeter=0;exitX=0.5;exitY=0;exitDx=0;exitDy=0;" edge="1" parent="WIyWlLk6GJQsqaUBKTNV-1" source="rURlg7K0j95UI2r0FF_1-28">
          <mxGeometry width="50" height="50" relative="1" as="geometry">
            <mxPoint x="485" y="458" as="sourcePoint" />
            <mxPoint x="483" y="259" as="targetPoint" />
          </mxGeometry>
        </mxCell>
        <mxCell id="rURlg7K0j95UI2r0FF_1-31" value="1" style="edgeLabel;html=1;align=center;verticalAlign=middle;resizable=0;points=[];" vertex="1" connectable="0" parent="rURlg7K0j95UI2r0FF_1-30">
          <mxGeometry x="-0.3466" y="-1" relative="1" as="geometry">
            <mxPoint as="offset" />
          </mxGeometry>
        </mxCell>
        <mxCell id="rURlg7K0j95UI2r0FF_1-32" value="address counter&lt;span style=&quot;font-weight: 400;&quot;&gt;&lt;br&gt;&lt;/span&gt;&lt;font color=&quot;#ff0505&quot;&gt;dp_addr_cnt_2&lt;/font&gt;" style="text;html=1;strokeColor=none;fillColor=none;align=left;verticalAlign=middle;whiteSpace=wrap;rounded=0;fontSize=11;fontFamily=Helvetica;fontColor=default;fontStyle=1" vertex="1" parent="WIyWlLk6GJQsqaUBKTNV-1">
          <mxGeometry x="437" y="159" width="90" height="45" as="geometry" />
        </mxCell>
        <mxCell id="1hs4knqwZ85UVMhzhQ41-66" value="" style="endArrow=classic;html=1;rounded=0;exitX=1.002;exitY=0.442;exitDx=0;exitDy=0;exitPerimeter=0;strokeWidth=2;entryX=0;entryY=0.25;entryDx=0;entryDy=0;" parent="WIyWlLk6GJQsqaUBKTNV-1" edge="1" target="1hs4knqwZ85UVMhzhQ41-63" source="1hs4knqwZ85UVMhzhQ41-55">
          <mxGeometry width="50" height="50" relative="1" as="geometry">
            <mxPoint x="625.0999999999999" y="353.72058823529414" as="sourcePoint" />
            <mxPoint x="693" y="353.52941176470586" as="targetPoint" />
          </mxGeometry>
        </mxCell>
        <mxCell id="1hs4knqwZ85UVMhzhQ41-67" value="18" style="edgeLabel;html=1;align=center;verticalAlign=middle;resizable=0;points=[];" parent="1hs4knqwZ85UVMhzhQ41-66" vertex="1" connectable="0">
          <mxGeometry x="0.2332" relative="1" as="geometry">
            <mxPoint x="-12" as="offset" />
          </mxGeometry>
        </mxCell>
        <mxCell id="rURlg7K0j95UI2r0FF_1-34" value="" style="endArrow=classic;html=1;rounded=0;entryX=-0.001;entryY=0.532;entryDx=0;entryDy=0;entryPerimeter=0;" edge="1" parent="WIyWlLk6GJQsqaUBKTNV-1">
          <mxGeometry width="50" height="50" relative="1" as="geometry">
            <mxPoint x="-39.12" y="720.2" as="sourcePoint" />
            <mxPoint x="39.99999999999989" y="720" as="targetPoint" />
          </mxGeometry>
        </mxCell>
        <mxCell id="rURlg7K0j95UI2r0FF_1-35" value="1" style="edgeLabel;html=1;align=center;verticalAlign=middle;resizable=0;points=[];" vertex="1" connectable="0" parent="rURlg7K0j95UI2r0FF_1-34">
          <mxGeometry x="-0.1362" y="2" relative="1" as="geometry">
            <mxPoint as="offset" />
          </mxGeometry>
        </mxCell>
        <mxCell id="rURlg7K0j95UI2r0FF_1-36" value="RAM_sw" style="text;html=1;strokeColor=none;fillColor=none;align=left;verticalAlign=middle;whiteSpace=wrap;rounded=0;fontSize=11;fontFamily=Helvetica;fontColor=default;" vertex="1" parent="WIyWlLk6GJQsqaUBKTNV-1">
          <mxGeometry x="43" y="707" width="50" height="30" as="geometry" />
        </mxCell>
      </root>
    </mxGraphModel>
  </diagram>
</mxfile>
